<svg id="Calque_1" data-name="Calque 1" xmlns="http://www.w3.org/2000/svg" viewBox="0 0 178.35 32.14"><defs><style>.cls-1{font-size:18.12px;font-family:Inter-Bold, Inter;font-weight:700;letter-spacing:-0.03em;}.cls-1,.cls-6{fill:#fff;}.cls-2{letter-spacing:-0.1em;}.cls-3,.cls-4{letter-spacing:-0.04em;}.cls-4{fill:#000;}.cls-5,.cls-7{fill:#fbb03b;}.cls-5{letter-spacing:-0.03em;}</style></defs><text class="cls-1" transform="translate(50.79 22.52)">La <tspan class="cls-2" x="23.1" y="0">V</tspan><tspan class="cls-3" x="34.89" y="0">oz</tspan><tspan class="cls-4" x="55.1" y="0"> </tspan><tspan class="cls-5" x="58.67" y="0">Islamica</tspan></text><path class="cls-6" d="M39.85,17.57v4.82a1,1,0,0,1-1,1h-.24a1,1,0,0,1-1-1v-.63a1.15,1.15,0,0,0-1.11-1.17h0a1.16,1.16,0,0,0-1.15,1.17V27a1,1,0,0,1-1,1H34a1,1,0,0,1-1-1V21.76a1.15,1.15,0,0,0-1.11-1.17h0a1.16,1.16,0,0,0-1.15,1.17v4.1a1,1,0,0,1-1,1H29.4a1,1,0,0,1-1-1v-4.1a1.16,1.16,0,0,0-1.11-1.17h0a1.16,1.16,0,0,0-1.14,1.17v8.69a1,1,0,0,1-1,1h-.23a1,1,0,0,1-1-1V21.76a1.16,1.16,0,0,0-1.11-1.17h0a1.17,1.17,0,0,0-1.15,1.17V35a1,1,0,0,1-1,1h-.23a1,1,0,0,1-1-1V21.78a1.16,1.16,0,0,0-1.11-1.17h0a1.17,1.17,0,0,0-1.15,1.18v8.55a1,1,0,0,1-1,1h-.23a1,1,0,0,1-1-1V8.52a1,1,0,0,1,1-1h.23a1,1,0,0,1,1,1v9.76A1.17,1.17,0,0,0,18,19.45h.13a1.16,1.16,0,0,0,1.11-1.18V5a1,1,0,0,1,1-1h.23a1,1,0,0,1,1,1v13.3a1.17,1.17,0,0,0,1.06,1.17h.13a1.16,1.16,0,0,0,1.11-1.17V9.55a1,1,0,0,1,1-1H25a1,1,0,0,1,1,1v8.71a1.16,1.16,0,0,0,1.05,1.17h.14a1.16,1.16,0,0,0,1.1-1.17V14.14a1,1,0,0,1,1-1h.24a1,1,0,0,1,1,1v4.12a1.16,1.16,0,0,0,1,1.17h.14A1.16,1.16,0,0,0,33,18.26V13a1,1,0,0,1,1-1h.24a1,1,0,0,1,1,1v5.28a1.16,1.16,0,0,0,1.06,1.17h.13a1.16,1.16,0,0,0,1.1-1.17v-.69a1,1,0,0,1,1-1h.24A1,1,0,0,1,39.85,17.57Z" transform="translate(-0.82 -3.93)"/><path class="cls-7" d="M12.3,11.85v16.3a1,1,0,0,1-1,1H11a1,1,0,0,1-.91-.54h0a.36.36,0,0,1,0-.09l0-.06s0,0,0,0a.19.19,0,0,1,0-.07A1.08,1.08,0,0,0,9.82,28a1.27,1.27,0,0,0-.57-.37l-.06,0a1.2,1.2,0,0,0-.28,0,1.45,1.45,0,0,0-.53.07h0a1.1,1.1,0,0,0-.7.74,1,1,0,0,1-1,.72H6.45a1,1,0,0,1-1-1V26.34A1.16,1.16,0,0,0,4.3,25.17h0a1.58,1.58,0,0,0-.83.22,1.08,1.08,0,0,0-.44.48,1,1,0,0,1-.93.59H1.85a1,1,0,0,1-1-1V20.6a1,1,0,0,1,1-1h.24a1,1,0,0,1,1,1v2.24A1.16,1.16,0,0,0,4.18,24h.13a1.17,1.17,0,0,0,1.11-1.17v-11a1,1,0,0,1,1-1h.23a1,1,0,0,1,1,1V25.35a1.12,1.12,0,0,0,1.1,1.13h0a1.3,1.3,0,0,0,.41-.08A1.12,1.12,0,0,0,10,25.33V11.85a1,1,0,0,1,1-1h.23A1,1,0,0,1,12.3,11.85Z" transform="translate(-0.82 -3.93)"/></svg>